<?xml version="1.0" encoding="UTF-8"?>
<!DOCTYPE svg PUBLIC "-//W3C//DTD SVG 1.1//EN" "http://www.w3.org/Graphics/SVG/1.1/DTD/svg11.dtd">
<svg version="1.1" xmlns="http://www.w3.org/2000/svg" xmlns:xlink="http://www.w3.org/1999/xlink" x="0" y="0" width="700" height="500" viewBox="0, 0, 700, 500">
  <defs>
    <clipPath id="Clip_1">
      <path d="M79.577,61.704 L509.796,61.704 L509.796,438.296 L79.577,438.296 z M270.103,69.704 C168.192,69.704 85.577,150.425 85.577,250 C86.84,347.602 163.928,426.295 264.105,430.176 C265.068,430.318 264.346,430.225 266.286,430.296 L486.023,430.296 C495.839,430.296 503.796,424.547 503.796,417.454 L503.796,264.677 C503.796,257.585 495.839,251.836 486.023,251.836 L454.604,251.836 L454.628,250 C454.628,150.425 372.013,69.704 270.103,69.704 z"/>
    </clipPath>
    <filter id="Shadow_2">
      <feGaussianBlur in="SourceAlpha" stdDeviation="2.5"/>
      <feOffset dx="0" dy="2" result="offsetblur"/>
      <feFlood flood-color="#000000"/>
      <feComposite in2="offsetblur" operator="in"/>
    </filter>
    <linearGradient id="Gradient_1" gradientUnits="userSpaceOnUse" x1="382.969" y1="358.103" x2="479.358" y2="417.91">
      <stop offset="0" stop-color="#000000" stop-opacity="0.371"/>
      <stop offset="1" stop-color="#000000" stop-opacity="0"/>
    </linearGradient>
    <linearGradient id="Gradient_2" gradientUnits="userSpaceOnUse" x1="409.197" y1="168.223" x2="505.587" y2="217.414">
      <stop offset="0" stop-color="#000000" stop-opacity="0.371"/>
      <stop offset="1" stop-color="#000000" stop-opacity="0"/>
    </linearGradient>
    <clipPath id="Clip_3">
      <path d="M342.098,162.075 L620.423,162.075 L620.423,438.296 L342.098,438.296 z M481.26,170.075 C407.717,170.075 348.098,228.327 348.098,300.185 C348.098,372.043 407.717,430.296 481.26,430.296 C554.804,430.296 614.423,372.043 614.423,300.185 C614.423,228.327 554.804,170.075 481.26,170.075 z"/>
    </clipPath>
    <filter id="Shadow_4">
      <feGaussianBlur in="SourceAlpha" stdDeviation="2.5"/>
      <feOffset dx="0" dy="2" result="offsetblur"/>
      <feFlood flood-color="#000000"/>
      <feComposite in2="offsetblur" operator="in"/>
    </filter>
  </defs>
  <g id="Layer_1">
    <g>
      <path d="M270.103,69.704 C372.013,69.704 454.628,150.425 454.628,250 L454.604,251.836 L486.023,251.836 C495.839,251.836 503.796,257.585 503.796,264.677 L503.796,417.454 C503.796,424.547 495.839,430.296 486.023,430.296 L266.286,430.296 C264.346,430.225 265.068,430.318 264.105,430.176 C163.928,426.295 86.84,347.602 85.577,250 C85.577,150.425 168.192,69.704 270.103,69.704 z" clip-path="url(#Clip_1)" filter="url(#Shadow_2)" fill="rgba(0,0,0,0.75)"/>
      <path d="M266.286,430.296 C264.346,430.225 265.068,430.318 264.105,430.176 C163.928,426.295 86.84,347.602 85.577,250 C85.577,150.425 168.192,69.704 270.103,69.704 C372.013,69.704 454.628,150.425 454.628,250 L454.604,251.836 L486.023,251.836 C495.839,251.836 503.796,257.585 503.796,264.677 L503.796,417.455 C503.796,424.547 495.839,430.296 486.023,430.296 L266.286,430.296 z" fill="#969696"/>
    </g>
    <path d="M419.79,430.296 C419.79,430.296 499.321,430.296 499.321,430.296 L435.148,345.717 L363.006,360.729" fill="url(#Gradient_1)"/>
    <path d="M446.019,227.602 C446.019,227.602 525.55,227.602 525.55,227.602 L456.265,172.835 L389.234,158.035" fill="url(#Gradient_2)"/>
    <path d="M440.201,69.704 C472.852,69.704 499.321,95.885 499.321,128.18 C499.321,160.476 472.852,186.657 440.201,186.657 C407.549,186.657 381.08,160.476 381.08,128.18 C381.08,95.885 407.549,69.704 440.201,69.704 z M440.201,151.848 C436.041,151.848 432.669,155.142 432.669,159.207 C432.669,163.271 436.041,166.566 440.201,166.566 C444.36,166.566 447.732,163.271 447.732,159.207 C447.732,155.142 444.36,151.848 440.201,151.848 z M447.732,89.795 L432.669,89.795 L432.669,145.902 L447.732,145.902 L447.732,89.795 z" fill="#FF002D"/>
    <g>
      <path d="M481.26,170.075 C554.804,170.075 614.423,228.327 614.423,300.185 C614.423,372.043 554.804,430.296 481.26,430.296 C407.717,430.296 348.098,372.043 348.098,300.185 C348.098,228.327 407.717,170.075 481.26,170.075 z" clip-path="url(#Clip_3)" filter="url(#Shadow_4)" fill="rgba(0,0,0,0.75)"/>
      <path d="M481.26,430.296 C407.717,430.296 348.098,372.043 348.098,300.185 C348.098,228.327 407.717,170.075 481.26,170.075 C554.804,170.075 614.423,228.327 614.423,300.185 C614.423,372.043 554.804,430.296 481.26,430.296 z" fill="#636363"/>
    </g>
  </g>
</svg>
